<svg viewBox="-280 372 50 50" xmlns="http://www.w3.org/2000/svg" xmlns:xlink="http://www.w3.org/1999/xlink" id="Layer_1" overflow="hidden"><path d="M-230.6 396.9C-231.5 394.8-233.4 392.9-235.8 391.8-236.9 388-240.1 384.3-244.7 384.3-244.8 384.3-245 384.3-245.2 384.3-247.1 382.9-249 382.2-251 382.2-252.2 382.2-253.4 382.5-254.5 383-255.4 382.5-256.4 382.3-257.5 382.3-259.9 382.3-262.2 383.4-263.6 384.7-264 384.6-264.5 384.5-265 384.5-268.6 384.5-272.1 387.4-273.1 391-276.2 392.1-278.4 394.1-279.5 396.8-280.5 399.4-280.3 402.2-278.9 404.6-277.5 407-275 408.5-272.3 408.5-271.3 408.5-270.3 408.3-269.3 407.9-267.7 409.4-265.5 410.3-263.5 410.3-262.8 410.3-262.1 410.2-261.5 410-259.9 411.3-257.4 411.8-255.4 411.8-253 411.8-250.9 411.2-249.6 410.1-248.7 410.5-247.7 410.7-246.7 410.7L-246.7 410.7C-244.1 410.7-241.5 409.3-240 407.4-239.2 407.7-238.3 407.9-237.5 407.9L-237.5 407.9C-234.7 407.9-232.1 406.1-230.9 403.2-229.8 401.1-229.8 398.9-230.6 396.9Z" fill="#0078D7"/><path d="M-263.9 410.3-263.9 401.5C-263.9 400.4-264.8 399.5-265.9 399.5L-269.2 399.5-269.2 400.9-265.9 400.9C-265.6 400.9-265.3 401.2-265.3 401.5L-265.3 410.1C-264.9 410.1-264.4 410.2-263.9 410.3Z" fill="#FFFFFF"/><path d="M-257.8 395.2-262.2 395.2C-262.5 395.2-262.8 394.9-262.8 394.6L-262.8 384.1C-263.1 384.3-263.3 384.5-263.5 384.7-263.7 384.6-264 384.6-264.2 384.6L-264.2 394.7C-264.2 395.8-263.3 396.7-262.2 396.7L-257.8 396.7C-257.5 396.7-257.2 397-257.2 397.3L-257.2 400.6-255.8 400.6-255.8 397.3C-255.9 396.1-256.8 395.2-257.8 395.2Z" fill="#FFFFFF"/><path d="M-239.2 400.8-239.2 399.5-240.6 399.5-240.6 400.8C-240.6 401.1-240.9 401.4-241.2 401.4L-246.8 401.4-246.8 391.4C-246.8 390.3-247.7 389.4-248.8 389.4L-252.6 389.4-252.6 390.8-248.8 390.8C-248.5 390.8-248.2 391.1-248.2 391.4L-248.2 410.6C-247.7 410.7-247.3 410.8-246.8 410.8L-246.8 402.9-241.2 402.9C-240.1 402.8-239.2 401.9-239.2 400.8Z" fill="#FFFFFF"/><path d="M-256.6 406.3C-258.3 406.3-259.7 404.9-259.7 403.2-259.7 401.5-258.3 400.1-256.6 400.1-254.9 400.1-253.5 401.5-253.5 403.2-253.4 404.9-254.8 406.3-256.6 406.3ZM-256.6 401.3C-257.6 401.3-258.4 402.1-258.4 403.1-258.4 404.1-257.6 404.9-256.6 404.9-255.6 404.9-254.8 404.1-254.8 403.1-254.7 402.1-255.6 401.3-256.6 401.3Z" fill="#FFFFFF"/><path d="M-271.5 403.3C-273.2 403.3-274.6 401.9-274.6 400.2-274.6 398.5-273.2 397.1-271.5 397.1-269.8 397.1-268.4 398.5-268.4 400.2-268.4 401.9-269.8 403.3-271.5 403.3ZM-271.5 398.3C-272.5 398.3-273.3 399.1-273.3 400.1-273.3 401.1-272.5 401.9-271.5 401.9-270.5 401.9-269.7 401.1-269.7 400.1-269.6 399.2-270.5 398.3-271.5 398.3Z" fill="#FFFFFF"/><path d="M-239.9 400.3C-241.6 400.3-243 398.9-243 397.2-243 395.5-241.6 394.1-239.9 394.1-238.2 394.1-236.8 395.5-236.8 397.2-236.8 398.9-238.2 400.3-239.9 400.3ZM-239.9 395.4C-240.9 395.4-241.7 396.2-241.7 397.2-241.7 398.2-240.9 399-239.9 399-238.9 399-238.1 398.2-238.1 397.2-238.1 396.2-238.9 395.4-239.9 395.4Z" fill="#FFFFFF"/><path d="M-254.9 393.2C-256.6 393.2-258 391.8-258 390.1-258 388.4-256.6 387-254.9 387-253.2 387-251.8 388.4-251.8 390.1-251.7 391.8-253.1 393.2-254.9 393.2ZM-254.9 388.2C-255.9 388.2-256.7 389-256.7 390-256.7 391-255.9 391.8-254.9 391.8-253.9 391.8-253.1 391-253.1 390-253 389-253.8 388.2-254.9 388.2Z" fill="#FFFFFF"/></svg>